<svg width="513" height="512" viewBox="0 0 513 512" fill="none" xmlns="http://www.w3.org/2000/svg">
<path d="M512 0H0V512H512V0Z" fill="#1292EE"/>
<path fill-rule="evenodd" clip-rule="evenodd" d="M237.628 194.636L150.959 283.273C140.127 272.193 133.356 256.96 132 238.954C132 222.336 140.125 205.716 150.959 194.636L238.984 106C249.817 117.08 256.587 133.698 256.587 150.318C256.587 166.938 248.463 183.557 237.63 194.636H237.628ZM275.754 317.364L363.373 228.727C374.327 241.191 381.174 256.427 381.174 273.045C381.174 289.664 372.956 306.284 362.006 317.364L274.384 406C263.432 394.92 256.587 378.3 256.587 361.682C256.587 345.062 264.8 328.443 275.754 317.364V317.364ZM273.605 194.636L299.476 168.727L363.472 106C374.364 116.909 381.172 133.273 381.172 149.637C381.172 166.001 373.003 182.364 362.109 193.273L299.476 256L273.605 281.909L236.844 318.727L210.974 344.636L149.702 406C138.807 395.091 132 378.727 132 362.363C132 345.999 140.17 329.635 151.063 318.727L212.335 257.363L236.842 231.454L273.605 194.636Z" fill="white"/>
</svg>
